<svg xmlns="http://www.w3.org/2000/svg" color-interpolation-filters="sRGB" style="margin:auto" version="1.0" viewBox="0 0 340 250">
  <g fill="#35495e" class="iconmbgsvg">
    <g mask="url(#a)" transform="translate(95 51.105)">
      <path fill="none" d="M0 0h150v147.789H0z" class="image-rect"/>
      <svg width="150" height="147.789" class="image-svg-svg primary" filter="url(#b)" style="overflow:visible">
        <svg xmlns="http://www.w3.org/2000/svg" xmlns:xlink="http://www.w3.org/1999/xlink" xml:space="preserve" width="109.288" height="109.288" style="enable-background:new 0 0 109.288 109.288" viewBox="0 0.806 109.288 107.677">
          <path d="M50.952 28.755c.591-.102.912-.925.43-1.121-3.111-1.268-7.328-4.245-6.012-8.022.724-2.077 1.628-1.615 4.174-5.595 2.575-4.026-1.066-10.924-7.527-10.328-6.586.606-8.183 10.313-5.712 15.827 2.519 5.622 9.41 10.263 14.647 9.239z"/>
          <path d="M53.5 27.309c6.209 2.275 11.812-5.81 11.945-11.85.136-6.159-4.101-13.306-9.27-14.626-.577-.162-1.221.444-.869.829 2.268 2.479 4.799 6.976 1.992 9.825-1.544 1.565-2.163.76-6.17 3.265-4.052 2.533-3.72 10.325 2.372 12.557zm4.736 53.225c-.59.101-.912.924-.43 1.12 3.112 1.268 7.327 4.245 6.011 8.022-.723 2.076-1.628 1.614-4.174 5.596-2.574 4.026 1.067 10.923 7.527 10.327 6.585-.605 8.182-10.312 5.712-15.827-2.518-5.622-9.409-10.263-14.646-9.238z"/>
          <path d="M55.688 81.979c-6.209-2.275-11.813 5.81-11.946 11.85-.135 6.158 4.102 13.306 9.27 14.627.578.162 1.222-.444.869-.829-2.268-2.479-4.8-6.976-1.991-9.824 1.543-1.566 2.163-.76 6.169-3.266 4.054-2.534 3.722-10.326-2.371-12.558zm-27.74-23.758c-.101-.59-.924-.913-1.121-.43-1.268 3.111-4.244 7.326-8.022 6.01-2.076-.723-1.614-1.627-5.595-4.173-4.026-2.576-10.924 1.065-10.328 7.525.606 6.586 10.313 8.183 15.827 5.712 5.623-2.517 10.263-9.408 9.239-14.644z"/>
          <path d="M10.68 51.874c1.565 1.543.76 2.164 3.265 6.17 2.533 4.052 10.326 3.72 12.558-2.373 2.276-6.209-5.81-11.814-11.85-11.946C8.495 43.59 1.347 47.826.027 52.996c-.162.577.444 1.221.829.868 2.478-2.266 6.975-4.799 9.824-1.99zm70.659-.999c.101.591.924.913 1.122.43 1.267-3.111 4.244-7.327 8.021-6.011 2.076.724 1.614 1.628 5.596 4.174 4.025 2.576 10.923-1.066 10.326-7.527-.605-6.585-10.312-8.182-15.825-5.711-5.622 2.518-10.265 9.409-9.24 14.645z"/>
          <path d="M108.433 55.231c-2.479 2.269-6.976 4.799-9.825 1.991-1.564-1.544-.76-2.163-3.265-6.17C92.81 47 85.017 47.333 82.786 53.425c-2.276 6.209 5.809 11.812 11.849 11.945 6.159.135 13.306-4.102 14.626-9.271.163-.576-.445-1.22-.828-.868zM16.519 42.633c5.755 2.194 13.91.602 16.889-3.823.347-.489-.008-1.299-.489-1.097-3.096 1.304-8.181 2.18-9.922-1.422-.957-1.979.01-2.292-1.004-6.908-1.026-4.668-8.479-6.97-12.625-1.98-4.229 5.085 1.505 13.078 7.151 15.23z"/>
          <path d="M17.331 16.572c3.356.15 8.326 1.539 8.354 5.539.015 2.199-.992 2.067-2.054 6.672-1.074 4.657 4.671 9.932 10.557 7.203 6-2.782 4.246-12.461.068-16.826-4.259-4.451-12.309-6.508-16.896-3.787-.524.292-.551 1.176-.029 1.199zm21.268 58.992c-.489-.347-1.299.01-1.096.489 1.303 3.096 2.179 8.182-1.423 9.922-1.979.957-2.292-.01-6.908 1.005-4.667 1.026-6.969 8.479-1.98 12.625 5.085 4.229 13.078-1.508 15.23-7.152 2.195-5.756.603-13.91-3.823-16.889z"/>
          <path d="M35.774 74.786c-2.781-6-12.461-4.246-16.826-.068-4.45 4.259-6.508 12.309-3.786 16.896.293.523 1.177.551 1.2.029.149-3.356 1.539-8.326 5.539-8.354 2.198-.016 2.066.992 6.671 2.055 4.657 1.073 9.931-4.674 7.202-10.558zm57.248-7.925c-5.755-2.193-13.91-.602-16.889 3.823-.347.489.008 1.299.489 1.098 3.096-1.305 8.182-2.181 9.922 1.422.957 1.979-.01 2.292 1.005 6.907 1.026 4.668 8.479 6.972 12.626 1.98 4.228-5.085-1.506-13.077-7.153-15.23z"/>
          <path d="M92.212 92.922c-3.356-.149-8.326-1.539-8.354-5.539-.016-2.198.992-2.066 2.056-6.671 1.073-4.656-4.672-9.933-10.559-7.202-6 2.781-4.245 12.46-.067 16.826 4.26 4.45 12.309 6.508 16.897 3.787.522-.293.548-1.177.027-1.201zm-21.54-59.22c.489.347 1.299-.008 1.097-.489-1.304-3.096-2.179-8.182 1.422-9.923 1.98-.956 2.292.01 6.908-1.004 4.668-1.026 6.97-8.479 1.981-12.625-5.086-4.228-13.078 1.507-15.23 7.153-2.195 5.754-.603 13.909 3.822 16.888z"/>
          <path d="M73.498 34.481c2.78 6 12.461 4.246 16.826.068 4.45-4.259 6.508-12.309 3.786-16.897-.293-.522-1.177-.549-1.198-.029-.15 3.356-1.54 8.327-5.54 8.354-2.198.016-2.066-.991-6.671-2.054-4.658-1.072-9.933 4.673-7.203 10.558z"/>
        </svg>
      </svg>
      <defs>
        <filter id="b">
          <feColorMatrix class="icon-fecolormatrix" values="0 0 0 0 0.25390625 0 0 0 0 0.71875 0 0 0 0 0.51171875 0 0 0 1 0"/>
        </filter>
        <filter id="c">
          <feColorMatrix class="icon-fecolormatrix" values="0 0 0 0 0.99609375 0 0 0 0 0.99609375 0 0 0 0 0.99609375 0 0 0 1 0"/>
        </filter>
      </defs>
    </g>
    <path d="M93.488 111.452c0 2.67 1.04 11.11 12.54 14.23-3.18-5.39-3.83-10.33-3.44-13.91.65-6.76 8.45-10.53 15.86-11.11 17.62-1.43 19.89 19.24 1.89 19.05l-.07-15.47-9.94 1.55 1.43 36.34c3.44.33 5.65.46 8.51.33l.07-14.89 12.02 17.49 8.9-4.75-12.93-15.41c9.88-3.12 14.24-9.29 14.11-15.47-.2-8.71-9.3-17.35-24.12-17.35-10.98 0-24.83 6.56-24.83 19.37Zm69.09 23.99-3.7-.4 1.17-33.21 3.32-.07.58-6.23-16.44-1.57-.39 8.13 3.38-.06-.46 32.17-3.9-.33-.32 8.07 16.18-.33.58-6.17Zm5.86 6.1 10.27 1.89 1.56-7.48 11.24-.64 1.69 7.92 8.19-1.29-1.1-7.16h.91l-.59-5.72-1.23-.06-5.01-32.57-14.04-.06-8.38 31.91-4.1-.13-.65 8.52 2.6-.13-1.36 5Zm17.42-32.17 4.22 19.44-8.25-.26 4.03-19.18Zm36.85-11.25-11.18-.52c-1.49 10.79-6.89 45.44 16.45 45.44 17.29-.13 19.17-20.02 18.39-35.49-.58-13.06-6.37-16.12-12.35-16.31 3.51 17.54 4.49 43.16-4.94 44.52-10.2 1.56-6.96-32.24-6.37-37.64Z" class="tp-name" data-gra="path-name"/>
    <path d="M94.508 151.438v7.19h4.05v-.78h-3.14v-6.41Zm4.48 0v7.19h4.25v-.78h-3.34v-2.61h2.73v-.78h-2.73v-2.26h3.23v-.76Zm6.42.76v6.43h.92v-6.43h2.17v-.76h-5.26v.76Zm3.46-.13.18 1.83h.55l.17-1.83.04-1.01h-.97Zm1.99 4.99-.55.64a3.419 3.419 0 0 0 2.52 1.06c.38 0 .72-.05 1.02-.16.3-.1.55-.25.77-.44.21-.18.37-.4.48-.65.12-.25.17-.51.17-.8 0-.26-.03-.49-.11-.69-.08-.21-.18-.38-.31-.53-.13-.15-.29-.28-.47-.4-.19-.11-.38-.21-.59-.3l-1.02-.44a3.89 3.89 0 0 1-.42-.19c-.14-.07-.27-.15-.39-.24-.11-.09-.21-.2-.28-.32a.868.868 0 0 1-.1-.44c0-.33.12-.59.37-.77.24-.19.57-.28.97-.28.33 0 .64.06.9.18.27.12.51.28.73.5l.49-.6c-.25-.26-.56-.47-.93-.64-.36-.16-.76-.24-1.19-.24-.33 0-.63.04-.91.14-.27.09-.51.23-.71.4-.2.17-.36.37-.47.61-.11.23-.17.48-.17.75a1.683 1.683 0 0 0 .47 1.22c.14.15.3.27.47.37.18.11.35.19.52.27l1.03.45c.17.08.32.15.47.23.15.07.27.15.38.24.1.09.19.2.25.33s.09.29.09.47c0 .35-.13.63-.39.85-.27.21-.63.32-1.11.32-.37 0-.73-.08-1.08-.25-.35-.16-.65-.38-.9-.65Zm6.35-5.62v7.19h.85v-3.96c0-.32-.02-.67-.05-1.06-.03-.39-.05-.74-.08-1.07h.05l.57 1.61 1.39 3.76h.52l1.38-3.76.58-1.61h.04c-.03.33-.05.68-.08 1.07s-.04.74-.04 1.06v3.96h.87v-7.19h-1.08l-1.38 3.86-.5 1.47h-.05l-.52-1.47-1.39-3.86Zm10.18 4.26h-2.16l.34-1.09c.14-.41.26-.81.38-1.2.11-.4.23-.81.34-1.23h.04c.12.42.23.83.35 1.23.12.39.24.79.37 1.2Zm.23.74.68 2.19h.98l-2.43-7.19h-1.03l-2.44 7.19h.93l.69-2.19Zm1.83-5v7.19h.91v-2.28l1.24-1.46 2.15 3.74h1.02l-2.6-4.45 2.25-2.74h-1.03l-2.99 3.6h-.04v-3.6Zm5.5 0v7.19h4.26v-.78h-3.35v-2.61h2.74v-.78h-2.74v-2.26h3.24v-.76Zm6.33 5.62-.55.64a3.419 3.419 0 0 0 2.52 1.06c.38 0 .72-.05 1.02-.16.3-.1.56-.25.77-.44.21-.18.37-.4.49-.65.11-.25.17-.51.17-.8a1.848 1.848 0 0 0-.43-1.22c-.13-.15-.29-.28-.47-.4-.19-.11-.38-.21-.58-.3l-1.02-.44c-.15-.05-.29-.12-.43-.19s-.27-.15-.39-.24c-.11-.09-.21-.2-.28-.32a.985.985 0 0 1-.1-.44c0-.33.12-.59.37-.77.24-.19.57-.28.97-.28.33 0 .64.06.9.18.27.12.51.28.73.5l.5-.6c-.26-.26-.57-.47-.94-.64-.36-.16-.76-.24-1.19-.24-.33 0-.63.04-.91.14-.27.09-.51.23-.71.4-.2.17-.36.37-.47.61-.11.23-.17.48-.17.75a1.683 1.683 0 0 0 .47 1.22c.14.15.3.27.47.37.18.11.35.19.52.27l1.03.45c.17.08.32.15.47.23.15.07.27.15.38.24.1.09.19.2.25.33s.09.29.09.47c0 .35-.13.63-.39.85-.26.21-.63.32-1.11.32-.37 0-.73-.08-1.08-.25-.35-.16-.65-.38-.9-.65Zm6.25-4.86v6.43h.93v-6.43h2.17v-.76h-5.27v.76Zm3.51-.76v4.22c0 .58.07 1.06.2 1.46.13.39.31.71.54.96.23.24.51.42.82.52.32.11.66.16 1.03.16.36 0 .7-.05 1.02-.16.31-.1.59-.28.82-.52.23-.25.41-.57.54-.96.13-.4.2-.88.2-1.46v-4.22h-.88v4.24c0 .43-.05.79-.13 1.09-.09.29-.21.52-.37.7-.15.17-.33.3-.53.38-.21.07-.43.11-.67.11-.24 0-.45-.04-.66-.11-.2-.08-.38-.21-.53-.38-.15-.18-.27-.41-.36-.7-.08-.3-.13-.66-.13-1.09v-4.24Zm6.26 0v7.19h1.84c.54 0 1.02-.08 1.44-.25.41-.16.77-.4 1.05-.71.29-.31.5-.69.65-1.14.14-.45.22-.96.22-1.53 0-1.15-.29-2.03-.87-2.64-.58-.62-1.42-.92-2.53-.92Zm1.73 6.44h-.82v-5.7h.82c.84 0 1.47.24 1.89.73.42.48.63 1.18.63 2.09 0 .91-.21 1.62-.63 2.13-.42.5-1.05.75-1.89.75Zm5.11-2.03v2.78h.92v-2.78l2.16-4.41h-.95l-.93 2.03c-.1.26-.22.52-.35.77-.12.26-.24.52-.37.79h-.04c-.13-.27-.24-.53-.35-.79-.11-.25-.23-.51-.34-.77l-.94-2.03h-.97Zm3.21-4.41v7.19h.91v-7.19Zm2.04 0v7.19h.86v-3.76c0-.38-.01-.76-.04-1.14-.02-.37-.05-.74-.08-1.11h.05l.77 1.48 2.61 4.53h.95v-7.19h-.87v3.71c0 .38.01.77.04 1.16.02.39.05.77.07 1.14h-.04l-.78-1.5-2.6-4.51Zm5.83 3.59c0 .59.08 1.11.24 1.58.16.46.38.85.67 1.17.28.32.62.56 1.02.73.39.17.83.25 1.3.25.48 0 .92-.08 1.3-.23.38-.16.69-.36.93-.6v-3.03h-2.36v.76h1.52v1.87c-.14.14-.33.24-.56.32-.23.07-.47.11-.73.11-.39 0-.73-.07-1.03-.21a2.02 2.02 0 0 1-.74-.59c-.2-.26-.36-.56-.46-.93-.11-.36-.16-.77-.16-1.22 0-.44.06-.85.17-1.2.11-.36.27-.67.48-.92.2-.25.45-.45.74-.58.29-.14.62-.2.99-.2.36 0 .67.06.9.19.24.13.45.29.63.48l.52-.59c-.21-.22-.49-.42-.82-.6-.33-.19-.74-.28-1.24-.28-.48 0-.93.08-1.33.25-.4.18-.75.42-1.05.74-.29.33-.52.72-.69 1.18-.16.46-.24.98-.24 1.55Zm10.76.67h-2.16l.34-1.09c.13-.41.25-.81.37-1.2.12-.4.23-.81.34-1.23h.05c.11.42.23.83.35 1.23.11.39.24.79.37 1.2Zm.23.74.68 2.19h.97l-2.43-7.19h-1.03l-2.43 7.19h.93l.69-2.19Zm1.83-5v7.19h.86v-3.76c0-.38-.01-.76-.03-1.14l-.09-1.11h.05l.78 1.48 2.61 4.53h.94v-7.19h-.87v3.71c0 .38.01.77.04 1.16.03.39.05.77.07 1.14h-.04l-.78-1.5-2.6-4.51Zm10.67 4.26h-2.16l.34-1.09c.13-.41.26-.81.38-1.2.11-.4.23-.81.34-1.23h.04c.12.42.23.83.35 1.23.12.39.24.79.37 1.2Zm.23.74.68 2.19h.98l-2.44-7.19h-1.03l-2.43 7.19h.93l.69-2.19Zm1.83-5v7.19h1.84c.54 0 1.02-.08 1.44-.25.42-.16.77-.4 1.05-.71.29-.31.5-.69.65-1.14.15-.45.22-.96.22-1.53 0-1.15-.29-2.03-.87-2.64-.58-.62-1.42-.92-2.53-.92Zm1.73 6.44h-.82v-5.7h.82c.84 0 1.47.24 1.9.73.42.48.63 1.18.63 2.09 0 .91-.21 1.62-.63 2.13-.43.5-1.06.75-1.9.75Zm3.07-6.44 2.3 7.19h1.07l2.28-7.19h-.93l-1.16 3.88c-.12.43-.23.83-.34 1.19-.1.37-.21.76-.35 1.19h-.04c-.14-.43-.26-.82-.36-1.19-.09-.36-.21-.76-.34-1.19l-1.15-3.88Zm5.79 0v7.19h4.25v-.78h-3.34v-2.61h2.73v-.78h-2.73v-2.26h3.23v-.76Zm4.93 0v7.19h.87v-3.76c0-.38-.02-.76-.04-1.14-.03-.37-.06-.74-.08-1.11h.04l.78 1.48 2.61 4.53h.94v-7.19h-.87v3.71c0 .38.02.77.04 1.16.03.39.05.77.07 1.14h-.04l-.78-1.5-2.6-4.51Zm7.74.76v6.43h.92v-6.43h2.17v-.76h-5.26v.76Zm3.5-.76v4.22c0 .58.07 1.06.2 1.46.13.39.31.71.54.96.23.24.51.42.83.52.31.11.66.16 1.02.16.37 0 .71-.05 1.02-.16.32-.1.59-.28.82-.52.23-.25.41-.57.54-.96.13-.4.2-.88.2-1.46v-4.22h-.88v4.24c0 .43-.04.79-.13 1.09-.09.29-.21.52-.36.7-.16.17-.33.3-.54.38a2.046 2.046 0 0 1-1.33 0c-.2-.08-.38-.21-.53-.38a1.84 1.84 0 0 1-.35-.7 3.8 3.8 0 0 1-.14-1.09v-4.24Zm7.17 3.41v-2.68h1.21c.56 0 .99.1 1.29.29.3.19.45.52.45.99s-.15.82-.45 1.05c-.3.23-.73.35-1.29.35Zm3.04 3.78h1.03l-1.82-3.14c.49-.12.88-.35 1.17-.69.3-.33.44-.78.44-1.35 0-.37-.06-.68-.18-.94-.13-.25-.3-.46-.52-.62-.23-.16-.49-.28-.81-.35-.31-.07-.64-.1-1.01-.1h-2.25v7.19h.91v-3.04h1.31Zm1.58-7.19v7.19h4.25v-.78h-3.34v-2.61h2.73v-.78h-2.73v-2.26h3.23v-.76Zm5.09.87.12 4.15h.63l.12-4.15.02-1.03h-.91Zm-.22 5.77c0 .2.07.36.2.49.12.13.28.19.46.19s.33-.06.46-.19c.12-.13.19-.29.19-.49 0-.21-.07-.38-.19-.51a.62.62 0 0 0-.46-.19c-.18 0-.34.06-.46.19-.13.13-.2.3-.2.51Z" class="tp-slogan" data-gra="path-slogan"/>
  </g>
  <mask id="a">
    <g fill="#fff">
      <path stroke-width="2" d="M0 0h150v147.789H0z" class="image-rect"/>
      <svg width="150" height="147.789" class="image-svg-svg primary" filter="url(#c)" style="overflow:visible">
        <svg xmlns="http://www.w3.org/2000/svg" xmlns:xlink="http://www.w3.org/1999/xlink" xml:space="preserve" width="109.288" height="109.288" style="enable-background:new 0 0 109.288 109.288" viewBox="0 0.806 109.288 107.677">
          <path d="M50.952 28.755c.591-.102.912-.925.43-1.121-3.111-1.268-7.328-4.245-6.012-8.022.724-2.077 1.628-1.615 4.174-5.595 2.575-4.026-1.066-10.924-7.527-10.328-6.586.606-8.183 10.313-5.712 15.827 2.519 5.622 9.41 10.263 14.647 9.239z"/>
          <path d="M53.5 27.309c6.209 2.275 11.812-5.81 11.945-11.85.136-6.159-4.101-13.306-9.27-14.626-.577-.162-1.221.444-.869.829 2.268 2.479 4.799 6.976 1.992 9.825-1.544 1.565-2.163.76-6.17 3.265-4.052 2.533-3.72 10.325 2.372 12.557zm4.736 53.225c-.59.101-.912.924-.43 1.12 3.112 1.268 7.327 4.245 6.011 8.022-.723 2.076-1.628 1.614-4.174 5.596-2.574 4.026 1.067 10.923 7.527 10.327 6.585-.605 8.182-10.312 5.712-15.827-2.518-5.622-9.409-10.263-14.646-9.238z"/>
          <path d="M55.688 81.979c-6.209-2.275-11.813 5.81-11.946 11.85-.135 6.158 4.102 13.306 9.27 14.627.578.162 1.222-.444.869-.829-2.268-2.479-4.8-6.976-1.991-9.824 1.543-1.566 2.163-.76 6.169-3.266 4.054-2.534 3.722-10.326-2.371-12.558zm-27.74-23.758c-.101-.59-.924-.913-1.121-.43-1.268 3.111-4.244 7.326-8.022 6.01-2.076-.723-1.614-1.627-5.595-4.173-4.026-2.576-10.924 1.065-10.328 7.525.606 6.586 10.313 8.183 15.827 5.712 5.623-2.517 10.263-9.408 9.239-14.644z"/>
          <path d="M10.68 51.874c1.565 1.543.76 2.164 3.265 6.17 2.533 4.052 10.326 3.72 12.558-2.373 2.276-6.209-5.81-11.814-11.85-11.946C8.495 43.59 1.347 47.826.027 52.996c-.162.577.444 1.221.829.868 2.478-2.266 6.975-4.799 9.824-1.99zm70.659-.999c.101.591.924.913 1.122.43 1.267-3.111 4.244-7.327 8.021-6.011 2.076.724 1.614 1.628 5.596 4.174 4.025 2.576 10.923-1.066 10.326-7.527-.605-6.585-10.312-8.182-15.825-5.711-5.622 2.518-10.265 9.409-9.24 14.645z"/>
          <path d="M108.433 55.231c-2.479 2.269-6.976 4.799-9.825 1.991-1.564-1.544-.76-2.163-3.265-6.17C92.81 47 85.017 47.333 82.786 53.425c-2.276 6.209 5.809 11.812 11.849 11.945 6.159.135 13.306-4.102 14.626-9.271.163-.576-.445-1.22-.828-.868zM16.519 42.633c5.755 2.194 13.91.602 16.889-3.823.347-.489-.008-1.299-.489-1.097-3.096 1.304-8.181 2.18-9.922-1.422-.957-1.979.01-2.292-1.004-6.908-1.026-4.668-8.479-6.97-12.625-1.98-4.229 5.085 1.505 13.078 7.151 15.23z"/>
          <path d="M17.331 16.572c3.356.15 8.326 1.539 8.354 5.539.015 2.199-.992 2.067-2.054 6.672-1.074 4.657 4.671 9.932 10.557 7.203 6-2.782 4.246-12.461.068-16.826-4.259-4.451-12.309-6.508-16.896-3.787-.524.292-.551 1.176-.029 1.199zm21.268 58.992c-.489-.347-1.299.01-1.096.489 1.303 3.096 2.179 8.182-1.423 9.922-1.979.957-2.292-.01-6.908 1.005-4.667 1.026-6.969 8.479-1.98 12.625 5.085 4.229 13.078-1.508 15.23-7.152 2.195-5.756.603-13.91-3.823-16.889z"/>
          <path d="M35.774 74.786c-2.781-6-12.461-4.246-16.826-.068-4.45 4.259-6.508 12.309-3.786 16.896.293.523 1.177.551 1.2.029.149-3.356 1.539-8.326 5.539-8.354 2.198-.016 2.066.992 6.671 2.055 4.657 1.073 9.931-4.674 7.202-10.558zm57.248-7.925c-5.755-2.193-13.91-.602-16.889 3.823-.347.489.008 1.299.489 1.098 3.096-1.305 8.182-2.181 9.922 1.422.957 1.979-.01 2.292 1.005 6.907 1.026 4.668 8.479 6.972 12.626 1.98 4.228-5.085-1.506-13.077-7.153-15.23z"/>
          <path d="M92.212 92.922c-3.356-.149-8.326-1.539-8.354-5.539-.016-2.198.992-2.066 2.056-6.671 1.073-4.656-4.672-9.933-10.559-7.202-6 2.781-4.245 12.46-.067 16.826 4.26 4.45 12.309 6.508 16.897 3.787.522-.293.548-1.177.027-1.201zm-21.54-59.22c.489.347 1.299-.008 1.097-.489-1.304-3.096-2.179-8.182 1.422-9.923 1.98-.956 2.292.01 6.908-1.004 4.668-1.026 6.97-8.479 1.981-12.625-5.086-4.228-13.078 1.507-15.23 7.153-2.195 5.754-.603 13.909 3.822 16.888z"/>
          <path d="M73.498 34.481c2.78 6 12.461 4.246 16.826.068 4.45-4.259 6.508-12.309 3.786-16.897-.293-.522-1.177-.549-1.198-.029-.15 3.356-1.54 8.327-5.54 8.354-2.198.016-2.066-.991-6.671-2.054-4.658-1.072-9.933 4.673-7.203 10.558z"/>
        </svg>
      </svg>
    </g>
    <g stroke="#000" stroke-linejoin="round" stroke-width="6">
      <path d="M-1.512 60.347c0 2.67 1.04 11.11 12.54 14.23-3.18-5.39-3.83-10.33-3.44-13.91.65-6.76 8.45-10.53 15.86-11.11 17.62-1.43 19.89 19.24 1.89 19.05l-.07-15.47-9.94 1.55 1.43 36.34c3.44.33 5.65.46 8.51.33l.07-14.89 12.02 17.49 8.9-4.75-12.93-15.41c9.88-3.12 14.24-9.29 14.11-15.47-.2-8.71-9.3-17.35-24.12-17.35-10.98 0-24.83 6.56-24.83 19.37Zm69.09 23.99-3.7-.4 1.17-33.21 3.32-.07.58-6.23-16.44-1.57-.39 8.13 3.38-.06-.46 32.17-3.9-.33-.32 8.07 16.18-.33.58-6.17Zm5.86 6.1 10.27 1.89 1.56-7.48 11.24-.64 1.69 7.92 8.19-1.29-1.1-7.16h.91l-.59-5.72-1.23-.06-5.01-32.57-14.04-.06-8.38 31.91-4.1-.13-.65 8.52 2.6-.13-1.36 5Zm17.42-32.17 4.22 19.44-8.25-.26 4.03-19.18Zm36.85-11.25-11.18-.52c-1.49 10.79-6.89 45.44 16.45 45.44 17.29-.13 19.17-20.02 18.39-35.49-.58-13.06-6.37-16.12-12.35-16.31 3.51 17.54 4.49 43.16-4.94 44.52-10.2 1.56-6.96-32.24-6.37-37.64Z" class="tp-name" data-gra="path-name"/>
      <path fill="#fff" d="M-.492 100.332v7.19h4.05v-.78H.418v-6.41Zm4.48 0v7.19h4.25v-.78h-3.34v-2.61h2.73v-.78h-2.73v-2.26h3.23v-.76Zm6.42.76v6.43h.92v-6.43h2.17v-.76h-5.26v.76Zm3.46-.13.18 1.83h.55l.17-1.83.04-1.01h-.97Zm1.99 4.99-.55.64a3.419 3.419 0 0 0 2.52 1.06c.38 0 .72-.05 1.02-.16.3-.1.55-.25.77-.44.21-.18.37-.4.48-.65.12-.25.17-.51.17-.8 0-.26-.03-.49-.11-.69-.08-.21-.18-.38-.31-.53-.13-.15-.29-.28-.47-.4-.19-.11-.38-.21-.59-.3l-1.02-.44a3.89 3.89 0 0 1-.42-.19c-.14-.07-.27-.15-.39-.24-.11-.09-.21-.2-.28-.32a.868.868 0 0 1-.1-.44c0-.33.12-.59.37-.77.24-.19.57-.28.97-.28.33 0 .64.06.9.18.27.12.51.28.73.5l.49-.6c-.25-.26-.56-.47-.93-.64-.36-.16-.76-.24-1.19-.24-.33 0-.63.04-.91.14-.27.09-.51.23-.71.4-.2.17-.36.37-.47.61-.11.23-.17.48-.17.75a1.683 1.683 0 0 0 .47 1.22c.14.15.3.27.47.37.18.11.35.19.52.27l1.03.45c.17.08.32.15.47.23.15.07.27.15.38.24.1.09.19.2.25.33s.09.29.09.47c0 .35-.13.63-.39.85-.27.21-.63.32-1.11.32-.37 0-.73-.08-1.08-.25-.35-.16-.65-.38-.9-.65Zm6.35-5.62v7.19h.85v-3.96c0-.32-.02-.67-.05-1.06-.03-.39-.05-.74-.08-1.07h.05l.57 1.61 1.39 3.76h.52l1.38-3.76.58-1.61h.04c-.03.33-.05.68-.08 1.07s-.04.74-.04 1.06v3.96h.87v-7.19h-1.08l-1.38 3.86-.5 1.47h-.05l-.52-1.47-1.39-3.86Zm10.18 4.26h-2.16l.34-1.09c.14-.41.26-.81.38-1.2.11-.4.23-.81.34-1.23h.04c.12.42.23.83.35 1.23.12.39.24.79.37 1.2Zm.23.74.68 2.19h.98l-2.43-7.19h-1.03l-2.44 7.19h.93l.69-2.19Zm1.83-5v7.19h.91v-2.28l1.24-1.46 2.15 3.74h1.02l-2.6-4.45 2.25-2.74h-1.03l-2.99 3.6h-.04v-3.6Zm5.5 0v7.19h4.26v-.78h-3.35v-2.61h2.74v-.78h-2.74v-2.26h3.24v-.76Zm6.33 5.62-.55.64a3.419 3.419 0 0 0 2.52 1.06c.38 0 .72-.05 1.02-.16.3-.1.56-.25.77-.44.21-.18.37-.4.49-.65.11-.25.17-.51.17-.8a1.848 1.848 0 0 0-.43-1.22c-.13-.15-.29-.28-.47-.4-.19-.11-.38-.21-.58-.3l-1.02-.44c-.15-.05-.29-.12-.43-.19s-.27-.15-.39-.24c-.11-.09-.21-.2-.28-.32a.985.985 0 0 1-.1-.44c0-.33.12-.59.37-.77.24-.19.57-.28.97-.28.33 0 .64.06.9.18.27.12.51.28.73.5l.5-.6c-.26-.26-.57-.47-.94-.64-.36-.16-.76-.24-1.19-.24-.33 0-.63.04-.91.14-.27.09-.51.23-.71.4-.2.17-.36.37-.47.61-.11.23-.17.48-.17.75a1.683 1.683 0 0 0 .47 1.22c.14.15.3.27.47.37.18.11.35.19.52.27l1.03.45c.17.08.32.15.47.23.15.07.27.15.38.24.1.09.19.2.25.33s.09.29.09.47c0 .35-.13.63-.39.85-.26.21-.63.32-1.11.32-.37 0-.73-.08-1.08-.25-.35-.16-.65-.38-.9-.65Zm6.25-4.86v6.43h.93v-6.43h2.17v-.76h-5.27v.76Zm3.51-.76v4.22c0 .58.07 1.06.2 1.46.13.39.31.71.54.96.23.24.51.42.82.52.32.11.66.16 1.03.16.36 0 .7-.05 1.02-.16.31-.1.59-.28.82-.52.23-.25.41-.57.54-.96.13-.4.2-.88.2-1.46v-4.22h-.88v4.24c0 .43-.05.79-.13 1.09-.09.29-.21.52-.37.7-.15.17-.33.3-.53.38-.21.07-.43.11-.67.11-.24 0-.45-.04-.66-.11-.2-.08-.38-.21-.53-.38-.15-.18-.27-.41-.36-.7-.08-.3-.13-.66-.13-1.09v-4.24Zm6.26 0v7.19h1.84c.54 0 1.02-.08 1.44-.25.41-.16.77-.4 1.05-.71.29-.31.5-.69.65-1.14.14-.45.22-.96.22-1.53 0-1.15-.29-2.03-.87-2.64-.58-.62-1.42-.92-2.53-.92Zm1.73 6.44h-.82v-5.7h.82c.84 0 1.47.24 1.89.73.42.48.63 1.18.63 2.09 0 .91-.21 1.62-.63 2.13-.42.5-1.05.75-1.89.75Zm5.11-2.03v2.78h.92v-2.78l2.16-4.41h-.95l-.93 2.03c-.1.26-.22.52-.35.77-.12.26-.24.52-.37.79h-.04c-.13-.27-.24-.53-.35-.79-.11-.25-.23-.51-.34-.77l-.94-2.03h-.97Zm3.21-4.41v7.19h.91v-7.19Zm2.04 0v7.19h.86v-3.76c0-.38-.01-.76-.04-1.14-.02-.37-.05-.74-.08-1.11h.05l.77 1.48 2.61 4.53h.95v-7.19h-.87v3.71c0 .38.01.77.04 1.16.02.39.05.77.07 1.14h-.04l-.78-1.5-2.6-4.51Zm5.83 3.59c0 .59.08 1.11.24 1.58.16.46.38.85.67 1.17.28.32.62.56 1.02.73.39.17.83.25 1.3.25.48 0 .92-.08 1.3-.23.38-.16.69-.36.93-.6v-3.03h-2.36v.76h1.52v1.87c-.14.14-.33.24-.56.32-.23.07-.47.11-.73.11-.39 0-.73-.07-1.03-.21a2.02 2.02 0 0 1-.74-.59c-.2-.26-.36-.56-.46-.93-.11-.36-.16-.77-.16-1.22 0-.44.06-.85.17-1.2.11-.36.27-.67.48-.92.2-.25.45-.45.74-.58.29-.14.62-.2.99-.2.36 0 .67.06.9.19.24.13.45.29.63.48l.52-.59c-.21-.22-.49-.42-.82-.6-.33-.19-.74-.28-1.24-.28-.48 0-.93.08-1.33.25-.4.18-.75.42-1.05.74-.29.33-.52.72-.69 1.18-.16.46-.24.98-.24 1.55Zm10.76.67h-2.16l.34-1.09c.13-.41.25-.81.37-1.2.12-.4.23-.81.34-1.23h.05c.11.42.23.83.35 1.23.11.39.24.79.37 1.2Zm.23.74.68 2.19h.97l-2.43-7.19h-1.03l-2.43 7.19h.93l.69-2.19Zm1.83-5v7.19h.86v-3.76c0-.38-.01-.76-.03-1.14l-.09-1.11h.05l.78 1.48 2.61 4.53h.94v-7.19h-.87v3.71c0 .38.01.77.04 1.16.03.39.05.77.07 1.14h-.04l-.78-1.5-2.6-4.51Zm10.67 4.26h-2.16l.34-1.09c.13-.41.26-.81.38-1.2.11-.4.23-.81.34-1.23h.04c.12.42.23.83.35 1.23.12.39.24.79.37 1.2Zm.23.74.68 2.19h.98l-2.44-7.19h-1.03l-2.43 7.19h.93l.69-2.19Zm1.83-5v7.19h1.84c.54 0 1.02-.08 1.44-.25.42-.16.77-.4 1.05-.71.29-.31.5-.69.65-1.14.15-.45.22-.96.22-1.53 0-1.15-.29-2.03-.87-2.64-.58-.62-1.42-.92-2.53-.92Zm1.73 6.44h-.82v-5.7h.82c.84 0 1.47.24 1.9.73.42.48.63 1.18.63 2.09 0 .91-.21 1.62-.63 2.13-.43.5-1.06.75-1.9.75Zm3.07-6.44 2.3 7.19h1.07l2.28-7.19h-.93l-1.16 3.88c-.12.43-.23.83-.34 1.19-.1.37-.21.76-.35 1.19h-.04c-.14-.43-.26-.82-.36-1.19-.09-.36-.21-.76-.34-1.19l-1.15-3.88Zm5.79 0v7.19h4.25v-.78h-3.34v-2.61h2.73v-.78h-2.73v-2.26h3.23v-.76Zm4.93 0v7.19h.87v-3.76c0-.38-.02-.76-.04-1.14-.03-.37-.06-.74-.08-1.11h.04l.78 1.48 2.61 4.53h.94v-7.19h-.87v3.71c0 .38.02.77.04 1.16.03.39.05.77.07 1.14h-.04l-.78-1.5-2.6-4.51Zm7.74.76v6.43h.92v-6.43h2.17v-.76h-5.26v.76Zm3.5-.76v4.22c0 .58.07 1.06.2 1.46.13.39.31.71.54.96.23.24.51.42.83.52.31.11.66.16 1.02.16.37 0 .71-.05 1.02-.16.32-.1.59-.28.82-.52.23-.25.41-.57.54-.96.13-.4.2-.88.2-1.46v-4.22h-.88v4.24c0 .43-.04.79-.13 1.09-.09.29-.21.52-.36.7-.16.17-.33.3-.54.38a2.046 2.046 0 0 1-1.33 0c-.2-.08-.38-.21-.53-.38a1.84 1.84 0 0 1-.35-.7 3.8 3.8 0 0 1-.14-1.09v-4.24Zm7.17 3.41v-2.68h1.21c.56 0 .99.1 1.29.29.3.19.45.52.45.99s-.15.82-.45 1.05c-.3.23-.73.35-1.29.35Zm3.04 3.78h1.03l-1.82-3.14c.49-.12.88-.35 1.17-.69.3-.33.44-.78.44-1.35 0-.37-.06-.68-.18-.94-.13-.25-.3-.46-.52-.62-.23-.16-.49-.28-.81-.35-.31-.07-.64-.1-1.01-.1h-2.25v7.19h.91v-3.04h1.31Zm1.58-7.19v7.19h4.25v-.78h-3.34v-2.61h2.73v-.78h-2.73v-2.26h3.23v-.76Zm5.09.87.12 4.15h.63l.12-4.15.02-1.03h-.91Zm-.22 5.77c0 .2.07.36.2.49.12.13.28.19.46.19s.33-.06.46-.19c.12-.13.19-.29.19-.49 0-.21-.07-.38-.19-.51a.62.62 0 0 0-.46-.19c-.18 0-.34.06-.46.19-.13.13-.2.3-.2.51Z" class="tp-slogan" data-gra="path-slogan"/>
    </g>
  </mask>
</svg>
